<?xml version="1.0" standalone="no"?>
<!DOCTYPE svg PUBLIC "-//W3C//DTD SVG 20010904//EN"
 "http://www.w3.org/TR/2001/REC-SVG-20010904/DTD/svg10.dtd">
<svg version="1.0" xmlns="http://www.w3.org/2000/svg"
 width="1024.000000pt" height="1024.000000pt" viewBox="0 0 1024.000000 1024.000000"
 preserveAspectRatio="xMidYMid meet">
<metadata>
Created by potrace 1.14, written by Peter Selinger 2001-2017
</metadata>
<g transform="translate(0.000000,1024.000000) scale(0.100000,-0.100000)"
fill="#000000" stroke="none">
<path d="M0 5120 l0 -5120 4720 0 4720 0 0 80 0 80 320 0 320 0 0 -80 0 -80
80 0 80 0 0 5120 0 5120 -5120 0 -5120 0 0 -5120z m7680 4427 c0 -20 -1 -20
-16 -5 -9 9 -13 21 -9 27 10 16 25 3 25 -22z m1394 -96 c31 -35 14 -29 -24 8
-19 19 -26 29 -15 24 11 -6 29 -21 39 -32z m-129 9 c-10 -11 -23 -20 -29 -20
-6 1 0 10 13 20 30 26 39 26 16 0z m-2435 -18 c-49 -17 -197 -48 -204 -44 -12
7 196 60 209 53 5 -2 3 -7 -5 -9z m2515 -42 c19 -27 25 -45 20 -57 -5 -10 -7
-21 -7 -25 1 -5 -4 -8 -12 -8 -8 0 -16 -7 -20 -15 -3 -9 0 -15 7 -15 15 0 59
-55 50 -63 -3 -4 -20 4 -37 17 -17 13 -49 33 -71 44 -22 12 -50 32 -63 46
l-23 25 37 28 c20 15 46 36 57 45 30 24 31 23 62 -22z m-180 0 c-3 -5 -12 -10
-18 -10 -7 0 -6 4 3 10 19 12 23 12 15 0z m215 -5 c7 -9 8 -15 2 -15 -5 0 -12
7 -16 15 -3 8 -4 15 -2 15 2 0 9 -7 16 -15z m-212 -81 l27 -26 -32 16 c-18 9
-33 21 -33 26 0 16 9 12 38 -16z m56 -56 c41 -9 102 -53 88 -62 -5 -3 -16 3
-24 14 -9 10 -41 25 -72 34 -30 9 -58 21 -62 28 -5 8 -2 9 12 4 10 -5 37 -12
58 -18z m-3817 -289 c3 -12 16 -42 29 -67 17 -33 20 -50 13 -63 -5 -10 -9 -25
-9 -34 0 -9 -6 -31 -14 -48 -8 -18 -16 -38 -18 -44 -2 -9 -13 -5 -32 12 -16
14 -33 25 -38 25 -5 0 -39 30 -76 68 -37 37 -77 74 -90 82 -15 10 -21 21 -17
31 8 22 52 31 59 13 6 -17 36 -7 36 12 0 13 26 20 100 27 19 2 39 5 43 5 5 1
11 -8 14 -19z m530 -59 c60 -36 67 -155 10 -195 -25 -17 -177 -22 -177 -5 0 6
3 10 8 10 4 0 21 14 39 30 18 17 35 26 38 20 3 -6 18 -10 33 -10 20 0 23 3 14
12 -20 20 -56 16 -89 -8 -53 -40 -77 -29 -75 32 4 107 111 168 199 114z
m-1177 -35 c0 -19 4 -19 39 -1 15 8 37 12 49 9 21 -5 72 -88 72 -116 0 -23
-40 -67 -61 -67 -12 0 -19 -7 -19 -20 0 -24 -11 -25 -48 -6 -15 7 -51 16 -80
19 -29 3 -57 9 -62 12 -16 10 9 60 50 99 25 24 40 47 40 62 0 13 5 24 10 24 6
0 10 -7 10 -15z m1140 -209 c0 -8 3 -22 7 -32 5 -14 2 -13 -15 4 -12 12 -26
22 -32 22 -15 0 -12 -40 3 -41 6 0 4 -4 -6 -8 -17 -6 -16 -9 9 -34 30 -31 31
-38 14 -177 -12 -108 -5 -252 16 -292 22 -43 17 -56 -27 -69 -32 -10 -56 -10
-110 -1 -109 19 -213 16 -259 -8 -38 -19 -65 -51 -54 -63 11 -11 -28 -56 -57
-66 -53 -18 -175 -25 -226 -11 -103 27 -197 72 -230 110 -18 21 -45 40 -60 43
-38 8 -99 47 -86 55 29 19 37 63 41 217 2 88 0 193 -5 233 l-10 73 28 15 c62
32 71 22 100 -106 23 -102 57 -125 111 -73 20 19 28 37 28 60 0 46 16 34 24
-17 8 -52 67 -117 113 -125 17 -3 34 -1 38 5 3 5 -1 33 -10 63 -18 62 -21 105
-11 163 l7 41 69 12 c38 7 74 10 80 6 6 -4 24 -32 40 -63 16 -31 48 -75 70
-97 52 -50 66 -73 51 -88 -18 -18 -12 -51 13 -74 25 -24 46 -30 46 -13 0 6 -5
10 -12 10 -9 0 -9 3 0 12 7 7 12 26 12 43 0 22 6 33 23 40 12 6 34 36 51 70
84 174 68 154 140 165 76 11 76 11 76 -4z m-695 -246 c3 -5 2 -10 -4 -10 -5 0
-13 5 -16 10 -3 6 -2 10 4 10 5 0 13 -4 16 -10z m458 -397 c-13 -2 -33 -2 -45
0 -13 2 -3 4 22 4 25 0 35 -2 23 -4z m-138 -15 c-11 -6 -28 -18 -37 -26 -10
-8 -18 -11 -18 -6 0 10 50 43 65 43 6 0 1 -5 -10 -11z m-455 -108 c46 -17 89
-35 96 -41 11 -9 68 -11 154 -6 19 1 36 -2 37 -8 2 -5 -7 -10 -20 -10 -14 0
-26 -10 -35 -29 -8 -16 -23 -31 -33 -33 -11 -3 -19 -11 -19 -18 0 -7 -9 -23
-19 -36 -10 -14 -27 -39 -37 -57 -18 -32 -21 -33 -91 -36 -70 -3 -72 -2 -81
23 -13 38 -3 60 14 30 13 -23 13 -23 14 16 0 51 8 62 45 67 52 5 42 68 -11 68
-17 0 -22 -4 -18 -15 7 -17 -9 -19 -37 -5 -21 12 -21 13 -39 -59 -7 -24 -15
-40 -20 -35 -5 5 -12 58 -16 118 -7 104 -6 109 12 103 10 -3 57 -20 104 -37z
m-1031 -81 c69 -35 84 -53 106 -127 20 -67 53 -104 115 -131 40 -17 61 -20
100 -15 41 5 50 4 50 -9 0 -8 -12 -18 -27 -22 -16 -3 -35 -12 -43 -19 -27 -23
-163 -75 -235 -90 -183 -39 -342 -57 -500 -57 -88 0 -167 -4 -175 -9 -13 -8
-13 -14 4 -42 70 -119 77 -154 40 -191 -17 -17 -22 -27 -13 -27 8 -1 3 -10
-13 -24 -36 -32 -107 -46 -239 -46 -60 0 -142 -6 -182 -14 -40 -8 -90 -17
-111 -21 -101 -17 -185 -88 -211 -180 -30 -101 12 -124 197 -106 176 17 230
15 263 -11 26 -20 27 -23 20 -87 -11 -101 -24 -115 -109 -126 -76 -9 -134 -45
-176 -113 -31 -49 -48 -63 -102 -90 -84 -42 -154 -51 -187 -25 -32 26 -20 46
64 113 40 31 82 76 106 113 37 56 43 61 72 59 46 -4 239 26 252 39 11 12 9 12
-110 -10 -88 -16 -228 -12 -322 10 -54 12 -124 19 -202 20 -148 1 -189 10
-223 48 -14 16 -29 27 -31 24 -3 -2 -10 5 -17 16 -8 16 -8 21 1 21 7 0 9 11 5
34 -14 73 36 135 124 156 48 11 143 80 129 94 -4 5 -34 12 -60 15 -15 2 -125
94 -136 114 -15 27 -16 77 -3 111 14 38 76 102 128 132 40 23 59 28 127 28 87
1 137 -17 276 -99 78 -45 171 -68 221 -55 48 14 93 66 102 120 15 96 69 158
162 185 64 19 109 21 214 13 90 -8 100 -2 125 71 14 42 16 70 11 127 -4 41 -6
74 -4 75 94 20 221 37 279 38 66 1 84 -3 138 -30z m1361 -44 c0 -89 26 -152
94 -226 31 -33 56 -64 56 -68 0 -4 -24 -34 -54 -67 -29 -32 -67 -84 -85 -114
-38 -65 -95 -147 -120 -173 -17 -18 -19 -17 -57 24 -21 24 -55 58 -74 76 -19
19 -42 55 -51 81 -10 29 -22 46 -30 45 -13 -2 -43 -8 -95 -18 -14 -3 -23 -15
-28 -36 -6 -33 -26 -31 -26 2 0 11 -4 29 -10 39 -7 14 -6 23 5 34 9 9 11 17 5
21 -15 9 -12 21 7 41 10 10 20 39 23 68 5 54 10 57 59 41 16 -5 21 -4 17 4 -8
12 2 14 52 11 22 -1 38 4 47 17 8 10 15 13 15 8 0 -6 -5 -16 -12 -23 -9 -9 -7
-13 6 -18 22 -8 57 23 49 44 -4 10 -3 14 2 10 4 -4 14 0 21 10 20 26 16 37 -6
17 -36 -33 -21 -3 20 37 21 22 42 49 46 61 9 28 93 117 111 117 9 0 13 -17 13
-65z m1070 -85 c12 -8 11 -10 -7 -10 -13 0 -23 5 -23 10 0 13 11 13 30 0z
m-1500 -36 c0 -8 -4 -12 -10 -9 -5 3 -10 13 -10 21 0 8 5 12 10 9 6 -3 10 -13
10 -21z m1270 -14 c0 -11 -4 -20 -9 -20 -6 0 -9 9 -8 20 1 11 5 20 9 20 4 0 8
-9 8 -20z m-1200 -58 c-15 -5 -62 27 -55 38 3 6 20 0 36 -12 17 -13 25 -24 19
-26z m75 18 c-3 -5 -16 -10 -28 -10 -18 0 -19 2 -7 10 20 13 43 13 35 0z
m-662 -114 c31 -24 18 -34 -70 -50 -115 -21 -189 -30 -183 -23 5 5 218 85 230
86 3 0 13 -6 23 -13z m2344 -492 c47 -27 129 -117 212 -231 l56 -77 -1 -91
c-1 -80 -7 -106 -51 -240 -94 -278 -136 -425 -163 -560 -14 -67 -66 -233 -79
-249 -5 -6 -21 -54 -35 -106 -29 -102 -52 -168 -85 -242 -25 -55 -81 -88 -152
-88 -24 0 -63 -5 -87 -10 -23 -6 -55 -12 -70 -14 -31 -4 -23 -2 -157 -45 -55
-18 -128 -46 -161 -62 -53 -25 -83 -31 -220 -43 -88 -8 -263 -16 -389 -18
l-231 -3 -50 40 c-57 46 -176 170 -192 201 -11 20 -7 24 46 47 31 14 89 35
127 47 39 12 95 31 125 42 30 11 71 24 90 30 19 5 73 25 120 43 47 18 166 56
265 85 99 28 188 55 197 60 10 6 23 10 29 10 21 0 133 53 173 82 49 35 43 36
-22 3 -65 -33 -97 -33 -88 -2 9 33 32 170 46 267 25 185 69 358 116 455 13 28
24 58 24 68 0 9 4 17 9 17 5 0 19 26 31 57 12 31 24 61 27 67 11 16 13 60 3
50 -8 -8 -30 -58 -115 -257 -57 -133 -114 -363 -140 -567 -24 -191 -26 -194
-88 -218 -28 -12 -104 -35 -167 -52 -111 -30 -326 -100 -422 -136 -26 -10 -50
-15 -54 -11 -11 11 -42 225 -55 381 -19 226 -2 617 32 743 12 44 41 63 98 63
14 0 58 7 96 16 39 8 103 20 142 25 109 14 454 139 631 228 56 28 106 51 111
51 10 0 -31 -167 -51 -210 -7 -14 -14 -28 -16 -32 -2 -5 3 -8 11 -8 8 0 19 16
25 38 6 20 19 69 30 107 11 39 23 82 26 97 5 22 28 38 142 98 74 40 148 76
162 80 38 12 90 2 139 -26z m-2371 -409 c30 -12 33 -18 39 -72 15 -127 46
-342 60 -413 8 -41 22 -109 30 -150 30 -150 44 -206 64 -259 12 -29 20 -55 18
-57 -2 -3 -35 0 -73 6 -85 12 -104 12 -104 2 0 -5 19 -9 43 -10 60 -2 116 -12
122 -22 7 -11 22 -84 40 -190 14 -86 41 -203 52 -230 4 -8 12 -35 19 -59 l12
-44 -457 8 c-251 4 -469 9 -486 10 -85 5 -78 0 -71 52 6 44 4 48 -32 82 l-38
36 0 144 c1 134 2 144 20 147 11 1 27 -1 36 -6 11 -6 24 -4 36 4 40 27 95 37
284 51 345 25 340 24 329 49 -31 73 -64 836 -39 910 13 41 22 42 96 11z m219
-50 c113 -9 148 -15 161 -26 11 -9 14 -92 14 -443 1 -442 8 -562 45 -741 31
-145 33 -130 -22 -149 -88 -32 -90 -32 -98 5 -4 18 -11 40 -16 49 -9 18 -41
171 -45 218 -2 18 -6 37 -9 42 -3 5 -8 37 -12 72 -3 35 -17 97 -30 138 -33
103 -88 383 -113 575 -34 263 -36 285 -32 289 2 3 25 -2 50 -10 26 -8 74 -17
107 -19z m438 -41 c-22 -121 -31 -693 -14 -824 14 -102 40 -250 57 -313 8 -32
12 -62 9 -66 -3 -5 -25 -16 -49 -24 -47 -16 -66 -9 -66 25 0 10 -9 51 -20 91
-11 40 -25 118 -31 173 -13 123 -24 820 -15 898 l8 57 61 -3 c38 -2 61 -7 60
-14z m-2076 -280 c22 -6 53 -58 53 -91 0 -22 -75 -68 -109 -65 -13 1 -30 7
-37 13 -19 16 -18 1 1 -18 8 -8 13 -19 10 -24 -12 -18 -38 -8 -86 32 -40 33
-49 47 -49 73 0 43 19 66 60 76 42 10 127 12 157 4z m-189 -501 c-21 -2 -57
-2 -80 0 -24 2 -7 4 37 4 44 0 63 -2 43 -4z m396 -41 c16 -15 18 -27 12 -92
-3 -41 -8 -85 -11 -98 -11 -60 -65 -394 -72 -451 -7 -61 -10 -65 -38 -73 -40
-11 -392 -10 -413 1 -12 7 -25 48 -44 148 -56 285 -67 351 -73 448 -6 84 -5
103 8 113 11 9 75 15 214 19 109 3 199 6 200 7 1 0 46 0 100 -2 74 -3 103 -8
117 -20z m3620 -64 c-4 -42 -23 -101 -61 -190 -31 -71 -57 -127 -59 -126 -1 2
13 46 33 98 19 52 36 100 37 105 4 23 50 175 53 175 2 0 1 -28 -3 -62z m-3311
-20 l97 -21 1 -56 1 -56 8 48 c5 27 10 51 12 53 2 2 4 -50 3 -114 0 -114 -9
-158 -25 -132 -4 7 -10 -7 -14 -33 -4 -25 -16 -53 -26 -62 -28 -25 -27 -50 0
-33 11 7 20 21 20 30 0 10 7 18 15 18 8 0 15 5 15 10 0 6 8 10 18 10 21 -1 52
-23 52 -38 0 -19 -65 -62 -93 -62 -15 0 -36 -9 -47 -20 -11 -11 -39 -23 -63
-26 -84 -11 -280 47 -290 87 -3 10 -1 22 4 25 11 6 69 -33 69 -47 0 -5 3 -8 8
-7 4 1 18 -2 30 -6 13 -4 45 -5 70 -1 41 6 44 8 24 16 -13 5 -20 13 -17 19 3
5 0 10 -7 10 -7 0 0 11 15 25 15 14 28 36 29 48 2 39 3 42 13 44 6 0 17 -3 25
-8 10 -5 11 -8 3 -9 -15 0 -18 -20 -3 -20 6 0 15 12 20 28 6 15 15 35 21 46 8
14 8 16 -2 10 -9 -5 -11 1 -6 24 5 27 3 32 -12 32 -23 0 -33 23 -18 40 9 10 8
12 -5 7 -10 -4 -18 -2 -18 3 0 6 -9 10 -20 10 -11 0 -20 -4 -20 -10 0 -5 6
-10 13 -10 13 0 59 -80 64 -111 2 -11 -2 -19 -7 -19 -6 0 -10 7 -10 15 0 21
-38 95 -49 95 -5 0 1 -18 12 -40 19 -40 18 -58 -2 -45 -6 3 -11 15 -11 26 0
11 -7 33 -15 50 -9 16 -13 34 -9 40 7 12 -15 59 -28 59 -4 0 -8 -8 -8 -18 0
-11 -7 -18 -20 -18 -21 0 -25 7 -13 20 8 8 13 36 7 36 -17 0 -52 -59 -49 -82
3 -20 0 -25 -11 -21 -8 3 -11 9 -8 14 3 5 -2 12 -10 15 -24 9 -19 33 9 44 23
9 36 40 16 40 -19 0 2 39 23 43 53 11 129 5 219 -15z m3347 -222 c5 -78 13
-196 16 -263 l7 -123 -54 0 c-143 -1 -463 -11 -628 -21 -101 -6 -185 -9 -187
-7 -5 5 203 77 241 84 17 2 38 7 47 10 10 3 30 7 45 10 16 3 53 12 84 20 31 7
71 14 88 14 17 0 51 10 75 22 40 19 49 30 73 87 15 36 31 68 35 71 10 8 128
255 129 271 0 8 5 3 10 -10 5 -13 14 -87 19 -165z m-3520 104 c0 -5 -5 -10
-11 -10 -5 0 -7 5 -4 10 3 6 8 10 11 10 2 0 4 -4 4 -10z m1539 -84 c2 -45 -6
-27 -12 29 -4 34 -3 42 3 25 4 -14 8 -38 9 -54z m-1639 -93 c0 -7 9 -13 20
-13 11 0 20 -4 20 -10 0 -5 8 -10 18 -10 10 0 24 -6 31 -12 11 -11 14 -10 18
0 7 17 23 5 23 -18 0 -29 -14 -32 -62 -14 -24 8 -59 20 -79 25 -31 9 -35 14
-31 38 2 18 10 27 23 27 10 0 19 -6 19 -13z m157 -15 c-3 -8 -6 -5 -6 6 -1 11
2 17 5 13 3 -3 4 -12 1 -19z m1486 -156 c-19 -54 -55 -61 -101 -18 l-24 21 54
16 c57 18 82 11 71 -19z m55 1 c2 -8 -5 -13 -17 -13 -12 0 -21 6 -21 16 0 18
31 15 38 -3z m62 -78 c22 -30 56 -67 75 -82 41 -33 44 -43 12 -43 -14 0 -32
-12 -46 -30 -12 -17 -26 -28 -32 -25 -5 4 -9 3 -8 -2 3 -17 -1 -32 -13 -45
-78 -82 -128 -160 -128 -197 0 -38 33 -125 56 -148 25 -25 25 -25 2 -17 -35
12 -94 6 -157 -17 -31 -11 -92 -29 -136 -40 -44 -11 -85 -25 -91 -29 -27 -23
-129 -38 -263 -39 -129 -2 -158 -6 -299 -40 -86 -22 -193 -46 -237 -55 -44 -8
-114 -22 -155 -30 -301 -60 -466 -128 -590 -246 -84 -79 -151 -257 -180 -475
-5 -44 -15 -102 -21 -130 -29 -126 -28 -123 -58 -130 -27 -6 -29 -11 -41 -83
-7 -42 -16 -81 -20 -85 -12 -13 -41 96 -50 183 -5 41 -12 85 -17 98 -9 22 -9
22 -23 -12 -14 -37 -46 -49 -56 -22 -8 20 13 229 37 376 53 330 120 473 267
576 168 118 305 152 752 189 272 22 573 45 586 45 7 0 11 -20 10 -55 -2 -82
11 -90 137 -89 116 1 171 16 200 55 21 29 17 63 -8 73 -9 3 -62 8 -120 12
l-106 6 -34 -38 c-28 -30 -35 -34 -35 -19 0 11 12 44 27 73 44 87 178 200 340
287 90 49 198 141 257 219 41 55 63 76 84 79 15 2 30 5 34 6 4 0 26 -24 48
-54z m-66 -356 c-14 -29 -32 -69 -39 -89 l-13 -35 -7 27 c-8 30 20 94 58 135
31 34 31 21 1 -38z m2669 -266 c-21 -83 -28 -91 -76 -98 -23 -3 -287 -10 -587
-15 -573 -9 -588 -11 -990 -71 -115 -17 -207 -23 -440 -26 -162 -3 -297 -9
-300 -13 -12 -18 -47 -20 -61 -3 -36 43 -41 68 -29 126 l11 55 72 6 c40 3 191
10 337 16 243 10 486 27 501 35 3 2 122 7 265 11 142 3 453 12 689 19 237 6
473 13 527 14 l96 1 -15 -57z m-3303 42 c0 -2 -10 -9 -22 -15 -22 -11 -22 -10
-4 4 21 17 26 19 26 11z m187 -27 c22 -18 15 -48 -13 -58 -23 -9 -211 -7 -220
3 -20 19 44 58 116 71 35 6 102 -3 117 -16z m442 1 c17 -6 31 -14 31 -18 0 -3
-18 -17 -40 -31 -22 -14 -40 -28 -40 -32 0 -5 -4 -8 -8 -8 -9 0 -32 59 -32 83
0 20 40 23 89 6z m-132 -29 c3 -11 11 -20 18 -20 8 0 19 -16 25 -35 6 -19 15
-35 18 -35 13 0 28 15 35 33 4 10 12 17 19 15 7 -2 29 7 50 20 28 18 45 21 76
16 60 -10 65 -15 53 -60 -15 -53 -14 -94 4 -124 25 -43 28 -51 22 -56 -15 -16
-280 -60 -407 -69 -316 -22 -469 -57 -567 -132 -45 -35 -148 -173 -163 -219
-29 -87 -62 -180 -70 -195 -4 -9 -22 -67 -40 -130 -35 -127 -95 -310 -116
-351 -21 -40 -37 -47 -30 -12 10 45 -8 87 -57 138 -40 41 -49 46 -67 36 -27
-14 -52 -54 -48 -77 1 -10 0 -22 -3 -28 -19 -32 -14 -118 5 -87 4 7 31 12 66
12 49 0 60 -3 65 -19 9 -28 36 -34 63 -14 29 22 83 175 229 643 27 89 44 124
72 156 20 22 53 62 74 87 75 93 217 141 457 157 267 18 582 74 627 111 12 11
73 14 277 15 252 2 405 15 636 54 78 13 315 40 355 40 32 0 29 -4 -119 -147
-231 -225 -366 -312 -583 -378 -65 -20 -165 -51 -223 -70 -58 -18 -208 -58
-335 -89 -426 -104 -646 -156 -660 -156 -19 0 -4 35 -242 -580 -25 -63 -55
-151 -68 -195 -13 -44 -29 -98 -35 -120 -6 -22 -30 -94 -52 -160 -22 -66 -53
-169 -69 -230 -62 -240 -60 -235 -90 -235 -14 0 -78 12 -140 26 -107 25 -129
27 -347 26 -148 -1 -240 -6 -253 -13 -11 -6 -23 -8 -26 -5 -10 9 19 151 59
286 44 150 112 438 123 515 4 28 9 58 12 68 3 13 -8 23 -52 42 -30 14 -63 25
-72 25 -13 0 -15 8 -10 43 3 24 11 55 16 70 10 25 15 27 65 27 44 0 59 -5 76
-22 19 -21 20 -21 20 -2 0 11 7 44 15 74 57 204 79 291 105 410 17 74 37 166
46 204 14 58 14 75 3 108 -7 21 -14 36 -16 34 -2 -2 -6 -37 -9 -77 -2 -41 -12
-105 -22 -144 l-18 -70 -96 -3 -96 -3 -12 -97 c-7 -53 -27 -169 -45 -257 -18
-88 -36 -178 -40 -200 -3 -22 -26 -107 -50 -190 -24 -82 -66 -238 -94 -345
-28 -107 -61 -230 -73 -273 l-21 -78 -86 3 c-47 2 -158 7 -246 11 -88 4 -208
10 -267 13 l-108 7 0 41 c0 44 19 170 50 336 22 121 43 243 70 420 36 237 47
283 75 308 15 12 30 22 35 22 9 0 34 -71 46 -130 3 -19 17 -55 29 -80 l23 -44
16 54 c9 30 20 73 26 96 8 34 17 44 55 63 36 18 45 28 46 49 3 151 72 478 120
573 37 74 68 110 132 152 113 74 194 110 330 146 78 21 307 69 359 76 18 2 54
9 81 16 26 6 50 9 53 6 3 -3 -19 -36 -50 -73 -31 -37 -56 -71 -56 -76 0 -4
-15 -31 -33 -60 -79 -126 -118 -228 -87 -228 6 0 10 6 10 13 0 31 139 285 179
326 20 21 69 82 79 97 18 29 156 57 322 64 121 6 182 14 230 29 129 40 255 83
270 91 25 15 42 11 47 -10z m1933 -134 c0 -30 -61 -181 -101 -251 -138 -241
-267 -373 -452 -461 -115 -54 -208 -67 -432 -61 -211 6 -576 35 -588 47 -5 4
20 13 55 20 35 6 196 50 358 96 304 88 404 128 524 212 83 57 296 246 369 327
l69 75 99 0 c54 0 99 -2 99 -4z m-3162 -762 c-4 -3 -25 -7 -47 -10 -23 -2 -59
-6 -81 -8 -30 -3 -40 -1 -40 10 0 11 19 14 87 14 47 0 84 -3 81 -6z m24 -324
c-12 -12 -22 -26 -22 -32 0 -6 11 -1 24 11 36 34 38 12 4 -47 -30 -53 -56 -71
-42 -29 4 12 8 39 9 60 0 22 7 42 15 47 27 17 34 10 12 -10z m76 -23 c8 -10 6
-13 -9 -14 -10 -1 -19 5 -19 13 0 17 14 18 28 1z m16 -37 c20 -7 26 -16 26
-41 0 -24 -3 -30 -16 -25 -9 3 -28 6 -42 6 -44 0 -55 12 -41 43 13 29 32 33
73 17z m-231 -36 c3 -4 2 -15 -4 -25 -7 -15 -20 -18 -64 -17 -44 1 -52 4 -44
15 8 9 8 13 0 13 -6 0 -11 5 -11 10 0 11 113 14 123 4z m3765 -78 c23 -5 42
-13 42 -19 0 -31 -54 -243 -64 -250 -9 -6 -2885 1 -2893 8 -3 1 15 50 76 215
12 30 21 55 21 55 0 5 2789 -4 2818 -9z m-3857 -161 c30 -14 43 -24 29 -21
-31 5 -97 30 -106 39 -16 16 27 5 77 -18z m2299 -589 c0 -419 3 -605 15 -732
4 -43 2 -53 -18 -70 -33 -28 -64 -44 -87 -44 -11 0 -20 -5 -20 -10 0 -18 93
10 122 37 9 8 20 36 24 62 l7 46 14 -30 14 -30 -6 39 c-8 51 -22 86 -35 86
-11 0 -14 78 -4 104 5 13 25 16 118 16 122 0 334 -22 436 -44 203 -44 264 -63
300 -92 8 -6 33 -17 55 -24 90 -29 184 -114 214 -193 70 -183 -203 -364 -694
-462 -282 -56 -863 -60 -1170 -9 -282 47 -544 136 -652 222 -174 138 -132 317
101 431 107 53 175 74 331 105 238 46 299 55 396 60 53 3 108 8 122 11 l27 7
0 -72 c0 -45 4 -69 10 -65 6 4 10 200 10 555 l0 549 143 3 c78 2 161 1 185 -1
l42 -3 0 -452z m-2925 -172 c141 -8 207 -14 241 -25 l32 -10 -2 -90 -1 -89
-40 -11 c-114 -29 -197 -60 -399 -147 -41 -17 -76 -63 -75 -97 0 -13 7 -5 21
24 23 48 64 78 118 87 19 3 67 18 105 34 71 28 200 68 290 90 28 6 100 27 160
45 155 47 327 58 540 35 107 -11 135 -17 135 -29 0 -63 -53 -359 -70 -390 -24
-47 -125 -122 -228 -171 -177 -85 -316 -103 -555 -70 -304 41 -438 100 -487
214 -11 26 -21 60 -21 74 -1 15 -3 20 -5 12 -4 -13 -32 -15 -192 -12 l-187 4
-107 43 c-119 48 -209 114 -227 167 -15 44 -14 154 3 186 34 66 126 118 236
132 60 8 507 4 715 -6z m-1345 -970 c0 -8 -4 -12 -10 -9 -5 3 -10 10 -10 16 0
5 5 9 10 9 6 0 10 -7 10 -16z m7365 -374 c0 -28 -4 -36 -21 -38 -28 -4 -55 23
-47 46 9 23 24 33 48 30 16 -2 20 -11 20 -38z"/>
<path d="M8930 9356 c0 -2 8 -10 18 -17 15 -13 16 -12 3 4 -13 16 -21 21 -21
13z"/>
<path d="M5543 8878 c-12 -17 -11 -50 3 -55 6 -2 22 5 35 17 24 20 24 20 5 35
-24 18 -31 19 -43 3z"/>
<path d="M4501 8811 c-17 -11 0 -23 41 -27 26 -3 27 -2 18 16 -11 21 -36 26
-59 11z"/>
<path d="M4980 8118 c-30 -11 -117 -27 -192 -36 -102 -12 -138 -20 -138 -30 0
-33 396 37 430 75 3 4 -3 3 -12 0 -10 -4 -18 -2 -18 3 0 12 -2 12 -70 -12z"/>
<path d="M4990 8050 c8 -5 20 -10 25 -10 6 0 3 5 -5 10 -8 5 -19 10 -25 10 -5
0 -3 -5 5 -10z"/>
<path d="M4894 8036 c-25 -14 -58 -46 -48 -46 12 0 74 44 74 53 0 8 1 8 -26
-7z"/>
<path d="M5035 8016 c-34 -27 -28 -47 7 -22 31 22 62 21 54 -1 -6 -14 -3 -14
15 3 45 45 -23 62 -76 20z"/>
<path d="M4710 8017 c14 -8 27 -12 30 -10 7 6 -23 23 -40 23 -8 0 -4 -6 10
-13z"/>
<path d="M4795 7980 c3 -5 8 -10 11 -10 2 0 4 5 4 10 0 6 -5 10 -11 10 -5 0
-7 -4 -4 -10z"/>
<path d="M4071 5664 c0 -11 3 -14 6 -6 3 7 2 16 -1 19 -3 4 -6 -2 -5 -13z"/>
<path d="M2565 6199 c-11 -17 1 -21 15 -4 8 9 8 15 2 15 -6 0 -14 -5 -17 -11z"/>
<path d="M2613 6098 c2 -7 10 -13 17 -13 7 0 15 6 18 13 2 7 -5 12 -18 12 -13
0 -20 -5 -17 -12z"/>
<path d="M3117 5241 c-13 -26 -13 -28 5 -23 10 2 17 7 14 10 -3 2 -1 13 5 23
6 12 6 19 0 19 -5 0 -16 -13 -24 -29z"/>
<path d="M2411 3384 c0 -11 3 -14 6 -6 3 7 2 16 -1 19 -3 4 -6 -2 -5 -13z"/>
<path d="M2403 3320 c0 -25 2 -35 4 -22 2 12 2 32 0 45 -2 12 -4 2 -4 -23z"/>
<path d="M2486 3214 c-8 -22 -2 -27 23 -19 18 5 19 8 7 21 -19 18 -22 18 -30
-2z"/>
<path d="M3111 2884 c0 -11 3 -14 6 -6 3 7 2 16 -1 19 -3 4 -6 -2 -5 -13z"/>
<path d="M4935 1590 c-3 -5 -1 -10 4 -10 6 0 11 -7 11 -15 0 -8 -4 -15 -9 -15
-5 0 -11 -9 -14 -21 -4 -14 -1 -19 7 -16 6 3 21 -2 31 -10 17 -12 18 -15 5
-24 -12 -9 -12 -10 3 -5 11 3 20 0 24 -10 11 -30 153 -80 153 -53 0 5 -12 9
-27 9 -38 1 -85 28 -119 69 -16 19 -28 36 -26 38 1 2 2 19 2 38 0 28 -4 35
-19 35 -11 0 -23 -4 -26 -10z"/>
<path d="M5476 1515 c4 -30 -1 -51 -18 -85 -24 -46 -24 -46 -133 -75 -36 -9
-43 -13 -23 -14 24 -1 139 24 142 31 1 2 14 26 29 54 31 59 33 82 12 110 -14
18 -15 16 -9 -21z"/>
<path d="M4910 1445 c-24 -14 -24 -14 -4 -15 12 0 24 7 28 15 6 18 7 18 -24 0z"/>
<path d="M4937 1413 c-4 -3 -7 -11 -7 -17 0 -6 5 -5 12 2 6 6 9 14 7 17 -3 3
-9 2 -12 -2z"/>
<path d="M5190 1410 c0 -5 7 -10 15 -10 8 0 15 5 15 10 0 6 -7 10 -15 10 -8 0
-15 -4 -15 -10z"/>
<path d="M4986 1371 c-4 -6 1 -14 11 -17 10 -3 27 -9 38 -13 36 -14 225 -14
225 0 0 8 -12 10 -39 6 -21 -2 -69 -1 -107 4 -38 5 -78 9 -89 10 -11 0 -22 5
-26 11 -5 7 -9 7 -13 -1z"/>
</g>
</svg>
